<?xml version="1.0" encoding="UTF-8" standalone="no" ?>
<!DOCTYPE svg PUBLIC "-//W3C//DTD SVG 1.1//EN" "http://www.w3.org/Graphics/SVG/1.1/DTD/svg11.dtd">
<svg xmlns="http://www.w3.org/2000/svg" xmlns:xlink="http://www.w3.org/1999/xlink" version="1.1" width="1080" height="1080" viewBox="0 0 1080 1080" xml:space="preserve">
<desc>Created with Fabric.js 5.2.4</desc>
<defs>
</defs>
<rect x="0" y="0" width="100%" height="100%" fill="transparent"></rect>
<g transform="matrix(1 0 0 1 540 540)" id="fc0760c8-07fd-4e17-99b3-b8ddc8568936"  >
</g>
<g transform="matrix(1 0 0 1 540 540)" id="fae9b6d3-7310-48f0-847e-d784ce5dfb53"  >
<rect style="stroke: none; stroke-width: 1; stroke-dasharray: none; stroke-linecap: butt; stroke-dashoffset: 0; stroke-linejoin: miter; stroke-miterlimit: 4; fill: rgb(255,255,255); fill-rule: nonzero; opacity: 1; visibility: hidden;" vector-effect="non-scaling-stroke"  x="-540" y="-540" rx="0" ry="0" width="1080" height="1080" />
</g>
<g transform="matrix(23.88 0 0 23.88 503.39 559.83)"  >
<path style="stroke: rgb(0,0,0); stroke-width: 0; stroke-dasharray: none; stroke-linecap: butt; stroke-dashoffset: 0; stroke-linejoin: miter; stroke-miterlimit: 4; fill: rgb(0,0,0); fill-rule: nonzero; opacity: 1;" vector-effect="non-scaling-stroke"  transform=" translate(-8, -8)" d="M 0 8 C 0 3.5817220013536524 3.5817220013536524 0 8 0 C 12.418277998646348 0 15.999999999999998 3.5817220013536506 16 7.999999999999998 C 16 12.418277998646348 12.418277998646348 16 8 16 C 3.5817220013536524 16 0 12.418277998646348 0 8 M 7.5 1.077 C 6.83 1.281 6.165 1.8969999999999998 5.6129999999999995 2.932 C 5.431228767749016 3.2761420301804614 5.274813396219708 3.633089929311451 5.1450000000000005 4 L 7.5 4 z M 4.09 4 C 4.25684008667231 3.4688784221747784 4.47103342901002 2.953810369272068 4.729999999999999 2.461000000000003 C 4.904043226563552 2.134718988933561 5.103668022135301 1.8227425496229412 5.327 1.5280000000000014 C 4.0881470867802125 2.0420691349928326 3.022211889205914 2.8998138642909006 2.2549999999999994 4.000000000000002 z M 3.508 7.5 C 3.538 6.623 3.646 5.782 3.82 5 L 1.674 5 C 1.3020479689443758 5.78538948446313 1.0795899655612788 6.633171509551154 1.0180000000000002 7.500000000000001 z M 4.847 5 C 4.650314938779765 5.819802785408619 4.53707170228673 6.657400688463581 4.508999999999996 7.500000000000009 L 7.5 7.5 L 7.5 5 z M 8.5 5 L 8.5 7.5 L 11.49 7.5 C 11.46225625359733 6.657434789599123 11.349348117549129 5.8198373411703335 11.152999999999999 4.999999999999999 z M 4.51 8.5 C 4.537743746402669 9.342565210400878 4.650651882450872 10.180162658829666 4.847000000000001 11 L 7.5 11 L 7.5 8.5 z M 8.5 8.5 L 8.5 11 L 11.153 11 C 11.34 10.235 11.459 9.392 11.491 8.5 z M 5.145 12 Q 5.353 12.58 5.6129999999999995 13.068 C 6.164999999999999 14.103 6.8309999999999995 14.718 7.5 14.923 L 7.5 12 z M 5.327 14.472 C 5.103668022135301 14.17725745037706 4.904043226563552 13.865281011066438 4.7299999999999995 13.538999999999998 C 4.471033429010021 13.046189630727936 4.2568400866723115 12.531121577825221 4.090000000000002 12 L 2.255 12 C 3.0209709828203994 13.101343923566148 4.087281591435557 13.95939074143616 5.327 14.472000000000001 M 3.82 11 C 3.6394342168574787 10.178018477962887 3.534992711491825 9.341147441379121 3.5080000000000005 8.5 L 1.0179999999999998 8.5 C 1.0799999999999998 9.39 1.3089999999999997 10.233 1.674 11 z M 10.673 14.472 C 11.912718408564443 13.959390741436158 12.979029017179602 13.101343923566146 13.745000000000001 11.999999999999998 L 11.91 12 C 11.74315991332769 12.531121577825221 11.528966570989978 13.046189630727934 11.269999999999998 13.539 C 11.095956773436447 13.865281011066438 10.8963319778647 14.177257450377061 10.673 14.472 M 8.5 12 L 8.5 14.923 C 9.17 14.719 9.835 14.103 10.387 13.068 Q 10.647 12.581 10.855 12 z M 12.18 11 L 14.326 11 C 14.691 10.233 14.92 9.39 14.982000000000001 8.5 L 12.492 8.5 C 12.465007288508177 9.34114744137912 12.36056578314252 10.178018477962887 12.18 11 M 14.982000000000001 7.5 C 14.920410034438722 6.633171509551153 14.697952031055625 5.785389484463128 14.326 4.999999999999998 L 12.18 5 C 12.354 5.782 12.462 6.623 12.491999999999999 7.5 z M 11.27 2.461 C 11.517 2.925 11.732 3.441 11.91 4 L 13.745000000000001 4 C 12.979029017179602 2.898656076433853 11.912718408564446 2.0406092585638436 10.673000000000005 1.5280000000000014 C 10.891000000000002 1.812 11.091000000000001 2.126 11.270000000000001 2.4610000000000003 M 10.855 4 C 10.725186603780294 3.633089929311451 10.568771232250983 3.276142030180462 10.387 2.9320000000000004 C 9.835 1.897 9.17 1.282 8.5 1.077 L 8.5 4 z" stroke-linecap="round" />
</g>
<g transform="matrix(1 0 0 1 517.77 327.04)" style="" id="559f0c4a-92fc-4135-91f3-0dd2b344cbb5"  >
		<text xml:space="preserve" font-family="Alegreya" font-size="80" font-style="normal" font-weight="600" style="stroke: none; stroke-width: 1; stroke-dasharray: none; stroke-linecap: butt; stroke-dashoffset: 0; stroke-linejoin: miter; stroke-miterlimit: 4; fill: rgb(0,0,0); fill-rule: nonzero; opacity: 1; white-space: pre;" ><tspan x="-141.64" y="25.13" >IMPACT</tspan></text>
</g>
<g transform="matrix(0.09 0 0 0.09 1632.75 748.91)" style="" id="1bd00496-4519-49b6-aeef-0a80f38cba69"  >
		<text xml:space="preserve" font-family="Raleway" font-size="105" font-style="normal" font-weight="900" style="stroke: none; stroke-width: 1; stroke-dasharray: none; stroke-linecap: butt; stroke-dashoffset: 0; stroke-linejoin: miter; stroke-miterlimit: 4; fill: rgb(0,0,0); fill-rule: nonzero; opacity: 1; white-space: pre;" ><tspan x="-218.82" y="32.98" >Heading</tspan></text>
</g>
<g transform="matrix(1 0 0 1 540 786.72)" style="" id="eba0f6c4-999e-4157-8aaa-b28526fe5854"  >
		<text xml:space="preserve" font-family="Lato" font-size="72" font-style="normal" font-weight="400" style="stroke: none; stroke-width: 1; stroke-dasharray: none; stroke-linecap: butt; stroke-dashoffset: 0; stroke-linejoin: miter; stroke-miterlimit: 4; fill: rgb(0,0,0); fill-rule: nonzero; opacity: 1; white-space: pre;" ><tspan x="-220.18" y="22.62" >e-News Paper</tspan></text>
</g>
</svg>